<mxfile host="app.diagrams.net" modified="2024-04-25T08:29:42.116Z" agent="Mozilla/5.0 (Windows NT 10.0; Win64; x64) AppleWebKit/537.36 (KHTML, like Gecko) Chrome/124.0.0.0 Safari/537.36" etag="sE7xF95ii_pm2GydonW0" version="24.3.0" type="github">
  <diagram name="페이지-1" id="MK5Hw0KBVoJ_4Murm1ev">
    <mxGraphModel dx="1195" dy="607" grid="0" gridSize="10" guides="1" tooltips="1" connect="1" arrows="1" fold="1" page="1" pageScale="1" pageWidth="827" pageHeight="1169" math="0" shadow="0">
      <root>
        <mxCell id="0" />
        <mxCell id="1" parent="0" />
        <mxCell id="NeVZHB2cAkmc2NvBBLA5-3" style="edgeStyle=orthogonalEdgeStyle;rounded=0;orthogonalLoop=1;jettySize=auto;html=1;entryX=0;entryY=0.5;entryDx=0;entryDy=0;" edge="1" parent="1" source="ANXaPgxON0iwH09Vxr6g-2" target="ANXaPgxON0iwH09Vxr6g-25">
          <mxGeometry relative="1" as="geometry">
            <mxPoint x="250" y="30" as="targetPoint" />
            <Array as="points">
              <mxPoint x="160" y="70" />
              <mxPoint x="160" y="30" />
            </Array>
          </mxGeometry>
        </mxCell>
        <mxCell id="ANXaPgxON0iwH09Vxr6g-2" value="비회원" style="shape=umlActor;verticalLabelPosition=bottom;verticalAlign=top;html=1;outlineConnect=0;" parent="1" vertex="1">
          <mxGeometry x="44" y="40" width="30" height="60" as="geometry" />
        </mxCell>
        <mxCell id="ANXaPgxON0iwH09Vxr6g-62" style="edgeStyle=orthogonalEdgeStyle;rounded=0;orthogonalLoop=1;jettySize=auto;html=1;entryX=0;entryY=0.5;entryDx=0;entryDy=0;" parent="1" source="ANXaPgxON0iwH09Vxr6g-9" target="ANXaPgxON0iwH09Vxr6g-28" edge="1">
          <mxGeometry relative="1" as="geometry">
            <Array as="points">
              <mxPoint x="160" y="240" />
              <mxPoint x="160" y="225" />
            </Array>
          </mxGeometry>
        </mxCell>
        <mxCell id="ANXaPgxON0iwH09Vxr6g-63" style="edgeStyle=orthogonalEdgeStyle;rounded=0;orthogonalLoop=1;jettySize=auto;html=1;entryX=0;entryY=0.5;entryDx=0;entryDy=0;" parent="1" source="ANXaPgxON0iwH09Vxr6g-9" target="ANXaPgxON0iwH09Vxr6g-29" edge="1">
          <mxGeometry relative="1" as="geometry">
            <Array as="points">
              <mxPoint x="160" y="240" />
              <mxPoint x="160" y="315" />
            </Array>
          </mxGeometry>
        </mxCell>
        <mxCell id="ANXaPgxON0iwH09Vxr6g-65" style="edgeStyle=orthogonalEdgeStyle;rounded=0;orthogonalLoop=1;jettySize=auto;html=1;entryX=0;entryY=0.5;entryDx=0;entryDy=0;" parent="1" source="ANXaPgxON0iwH09Vxr6g-9" target="ANXaPgxON0iwH09Vxr6g-30" edge="1">
          <mxGeometry relative="1" as="geometry">
            <Array as="points">
              <mxPoint x="160" y="240" />
              <mxPoint x="160" y="385" />
            </Array>
          </mxGeometry>
        </mxCell>
        <mxCell id="ANXaPgxON0iwH09Vxr6g-80" style="edgeStyle=orthogonalEdgeStyle;rounded=0;orthogonalLoop=1;jettySize=auto;html=1;entryX=0;entryY=0.5;entryDx=0;entryDy=0;" parent="1" source="ANXaPgxON0iwH09Vxr6g-9" target="ANXaPgxON0iwH09Vxr6g-36" edge="1">
          <mxGeometry relative="1" as="geometry">
            <Array as="points">
              <mxPoint x="160" y="240" />
              <mxPoint x="160" y="560" />
              <mxPoint x="280" y="560" />
            </Array>
          </mxGeometry>
        </mxCell>
        <mxCell id="NeVZHB2cAkmc2NvBBLA5-2" style="edgeStyle=orthogonalEdgeStyle;rounded=0;orthogonalLoop=1;jettySize=auto;html=1;entryX=0;entryY=0.5;entryDx=0;entryDy=0;" edge="1" parent="1" target="ANXaPgxON0iwH09Vxr6g-31">
          <mxGeometry relative="1" as="geometry">
            <mxPoint x="70" y="240" as="sourcePoint" />
            <mxPoint x="266" y="455" as="targetPoint" />
            <Array as="points">
              <mxPoint x="160" y="240" />
              <mxPoint x="160" y="460" />
            </Array>
          </mxGeometry>
        </mxCell>
        <mxCell id="NeVZHB2cAkmc2NvBBLA5-11" style="edgeStyle=orthogonalEdgeStyle;rounded=0;orthogonalLoop=1;jettySize=auto;html=1;entryX=0;entryY=0.5;entryDx=0;entryDy=0;" edge="1" parent="1" source="ANXaPgxON0iwH09Vxr6g-9" target="ANXaPgxON0iwH09Vxr6g-26">
          <mxGeometry relative="1" as="geometry">
            <Array as="points">
              <mxPoint x="160" y="240" />
              <mxPoint x="160" y="130" />
            </Array>
          </mxGeometry>
        </mxCell>
        <mxCell id="ANXaPgxON0iwH09Vxr6g-9" value="회&lt;span style=&quot;background-color: initial;&quot;&gt;원&lt;/span&gt;" style="shape=umlActor;verticalLabelPosition=bottom;verticalAlign=top;html=1;outlineConnect=0;" parent="1" vertex="1">
          <mxGeometry x="44" y="210" width="30" height="60" as="geometry" />
        </mxCell>
        <mxCell id="NeVZHB2cAkmc2NvBBLA5-5" style="edgeStyle=orthogonalEdgeStyle;rounded=0;orthogonalLoop=1;jettySize=auto;html=1;entryX=0;entryY=0.5;entryDx=0;entryDy=0;" edge="1" parent="1" source="ANXaPgxON0iwH09Vxr6g-25" target="ANXaPgxON0iwH09Vxr6g-56">
          <mxGeometry relative="1" as="geometry">
            <mxPoint x="394" y="30" as="targetPoint" />
          </mxGeometry>
        </mxCell>
        <mxCell id="ANXaPgxON0iwH09Vxr6g-25" value="회원가입" style="ellipse;whiteSpace=wrap;html=1;" parent="1" vertex="1">
          <mxGeometry x="254" y="5" width="90" height="50" as="geometry" />
        </mxCell>
        <mxCell id="NeVZHB2cAkmc2NvBBLA5-6" style="edgeStyle=orthogonalEdgeStyle;rounded=0;orthogonalLoop=1;jettySize=auto;html=1;entryX=0;entryY=0.5;entryDx=0;entryDy=0;" edge="1" parent="1" source="ANXaPgxON0iwH09Vxr6g-26" target="ANXaPgxON0iwH09Vxr6g-52">
          <mxGeometry relative="1" as="geometry">
            <mxPoint x="394" y="130" as="targetPoint" />
          </mxGeometry>
        </mxCell>
        <mxCell id="ANXaPgxON0iwH09Vxr6g-26" value="회원관리" style="ellipse;whiteSpace=wrap;html=1;" parent="1" vertex="1">
          <mxGeometry x="254" y="105" width="90" height="50" as="geometry" />
        </mxCell>
        <mxCell id="ANXaPgxON0iwH09Vxr6g-61" style="edgeStyle=orthogonalEdgeStyle;rounded=0;orthogonalLoop=1;jettySize=auto;html=1;entryX=0;entryY=0.5;entryDx=0;entryDy=0;" parent="1" source="ANXaPgxON0iwH09Vxr6g-28" target="ANXaPgxON0iwH09Vxr6g-43" edge="1">
          <mxGeometry relative="1" as="geometry">
            <Array as="points">
              <mxPoint x="570" y="230" />
              <mxPoint x="570" y="110" />
            </Array>
          </mxGeometry>
        </mxCell>
        <mxCell id="ANXaPgxON0iwH09Vxr6g-28" value="구독" style="ellipse;whiteSpace=wrap;html=1;" parent="1" vertex="1">
          <mxGeometry x="254" y="200" width="90" height="50" as="geometry" />
        </mxCell>
        <mxCell id="ANXaPgxON0iwH09Vxr6g-64" style="edgeStyle=orthogonalEdgeStyle;rounded=0;orthogonalLoop=1;jettySize=auto;html=1;entryX=0;entryY=0.5;entryDx=0;entryDy=0;" parent="1" source="ANXaPgxON0iwH09Vxr6g-29" target="ANXaPgxON0iwH09Vxr6g-48" edge="1">
          <mxGeometry relative="1" as="geometry">
            <Array as="points">
              <mxPoint x="570" y="320" />
              <mxPoint x="570" y="180" />
            </Array>
          </mxGeometry>
        </mxCell>
        <mxCell id="ANXaPgxON0iwH09Vxr6g-29" value="좋아요" style="ellipse;whiteSpace=wrap;html=1;" parent="1" vertex="1">
          <mxGeometry x="254" y="290" width="90" height="50" as="geometry" />
        </mxCell>
        <mxCell id="ANXaPgxON0iwH09Vxr6g-66" style="edgeStyle=orthogonalEdgeStyle;rounded=0;orthogonalLoop=1;jettySize=auto;html=1;exitX=1;exitY=0.5;exitDx=0;exitDy=0;entryX=0;entryY=0.5;entryDx=0;entryDy=0;" parent="1" source="ANXaPgxON0iwH09Vxr6g-30" target="ANXaPgxON0iwH09Vxr6g-45" edge="1">
          <mxGeometry relative="1" as="geometry">
            <Array as="points">
              <mxPoint x="600" y="390" />
              <mxPoint x="600" y="250" />
            </Array>
          </mxGeometry>
        </mxCell>
        <mxCell id="ANXaPgxON0iwH09Vxr6g-30" value="결제" style="ellipse;whiteSpace=wrap;html=1;" parent="1" vertex="1">
          <mxGeometry x="254" y="360" width="90" height="50" as="geometry" />
        </mxCell>
        <mxCell id="NeVZHB2cAkmc2NvBBLA5-9" style="edgeStyle=orthogonalEdgeStyle;rounded=0;orthogonalLoop=1;jettySize=auto;html=1;exitX=1;exitY=0.5;exitDx=0;exitDy=0;" edge="1" parent="1" source="ANXaPgxON0iwH09Vxr6g-31" target="ANXaPgxON0iwH09Vxr6g-76">
          <mxGeometry relative="1" as="geometry" />
        </mxCell>
        <mxCell id="ANXaPgxON0iwH09Vxr6g-31" value="모임 및 이벤트 관리" style="ellipse;whiteSpace=wrap;html=1;" parent="1" vertex="1">
          <mxGeometry x="254" y="435" width="110" height="50" as="geometry" />
        </mxCell>
        <mxCell id="ANXaPgxON0iwH09Vxr6g-81" style="edgeStyle=orthogonalEdgeStyle;rounded=0;orthogonalLoop=1;jettySize=auto;html=1;entryX=0;entryY=0.5;entryDx=0;entryDy=0;" parent="1" source="ANXaPgxON0iwH09Vxr6g-36" target="ANXaPgxON0iwH09Vxr6g-47" edge="1">
          <mxGeometry relative="1" as="geometry" />
        </mxCell>
        <mxCell id="ANXaPgxON0iwH09Vxr6g-36" value="채팅" style="ellipse;whiteSpace=wrap;html=1;" parent="1" vertex="1">
          <mxGeometry x="254" y="534.5" width="90" height="50" as="geometry" />
        </mxCell>
        <mxCell id="ANXaPgxON0iwH09Vxr6g-42" value="member service" style="rounded=1;whiteSpace=wrap;html=1;" parent="1" vertex="1">
          <mxGeometry x="620" y="40" width="120" height="40" as="geometry" />
        </mxCell>
        <mxCell id="ANXaPgxON0iwH09Vxr6g-43" value="subscription service" style="rounded=1;whiteSpace=wrap;html=1;" parent="1" vertex="1">
          <mxGeometry x="620" y="90" width="120" height="40" as="geometry" />
        </mxCell>
        <mxCell id="ANXaPgxON0iwH09Vxr6g-45" value="payment&amp;nbsp;&lt;span style=&quot;background-color: initial;&quot;&gt;service&lt;/span&gt;" style="rounded=1;whiteSpace=wrap;html=1;" parent="1" vertex="1">
          <mxGeometry x="620" y="230" width="120" height="40" as="geometry" />
        </mxCell>
        <mxCell id="ANXaPgxON0iwH09Vxr6g-46" value="notification&amp;nbsp;&lt;span style=&quot;background-color: initial;&quot;&gt;service&lt;/span&gt;" style="rounded=1;whiteSpace=wrap;html=1;" parent="1" vertex="1">
          <mxGeometry x="615" y="911.25" width="120" height="40" as="geometry" />
        </mxCell>
        <mxCell id="ANXaPgxON0iwH09Vxr6g-47" value="&lt;span style=&quot;background-color: initial;&quot;&gt;chat service&lt;/span&gt;" style="rounded=1;whiteSpace=wrap;html=1;" parent="1" vertex="1">
          <mxGeometry x="620" y="540" width="120" height="40" as="geometry" />
        </mxCell>
        <mxCell id="ANXaPgxON0iwH09Vxr6g-48" value="&lt;span style=&quot;background-color: initial;&quot;&gt;like service&lt;/span&gt;" style="rounded=1;whiteSpace=wrap;html=1;" parent="1" vertex="1">
          <mxGeometry x="620" y="160" width="120" height="40" as="geometry" />
        </mxCell>
        <mxCell id="ANXaPgxON0iwH09Vxr6g-49" value="&lt;span style=&quot;background-color: initial;&quot;&gt;festival service&lt;/span&gt;" style="rounded=1;whiteSpace=wrap;html=1;" parent="1" vertex="1">
          <mxGeometry x="615" y="626.25" width="120" height="40" as="geometry" />
        </mxCell>
        <mxCell id="ANXaPgxON0iwH09Vxr6g-50" value="&lt;span style=&quot;background-color: initial;&quot;&gt;gathering service&lt;/span&gt;" style="rounded=1;whiteSpace=wrap;html=1;" parent="1" vertex="1">
          <mxGeometry x="620" y="440" width="120" height="40" as="geometry" />
        </mxCell>
        <mxCell id="NeVZHB2cAkmc2NvBBLA5-8" style="edgeStyle=orthogonalEdgeStyle;rounded=0;orthogonalLoop=1;jettySize=auto;html=1;entryX=0;entryY=0.5;entryDx=0;entryDy=0;" edge="1" parent="1" source="ANXaPgxON0iwH09Vxr6g-52" target="ANXaPgxON0iwH09Vxr6g-42">
          <mxGeometry relative="1" as="geometry">
            <Array as="points">
              <mxPoint x="560" y="140" />
              <mxPoint x="560" y="60" />
            </Array>
          </mxGeometry>
        </mxCell>
        <mxCell id="ANXaPgxON0iwH09Vxr6g-52" value="로그인&lt;div&gt;회원정보 수정&lt;/div&gt;" style="rounded=0;whiteSpace=wrap;html=1;align=left;" parent="1" vertex="1">
          <mxGeometry x="403" y="110" width="120" height="40" as="geometry" />
        </mxCell>
        <mxCell id="NeVZHB2cAkmc2NvBBLA5-7" style="edgeStyle=orthogonalEdgeStyle;rounded=0;orthogonalLoop=1;jettySize=auto;html=1;exitX=1;exitY=0.5;exitDx=0;exitDy=0;entryX=0;entryY=0.5;entryDx=0;entryDy=0;" edge="1" parent="1" source="ANXaPgxON0iwH09Vxr6g-56" target="ANXaPgxON0iwH09Vxr6g-42">
          <mxGeometry relative="1" as="geometry">
            <Array as="points">
              <mxPoint x="560" y="30" />
              <mxPoint x="560" y="60" />
            </Array>
          </mxGeometry>
        </mxCell>
        <mxCell id="ANXaPgxON0iwH09Vxr6g-56" value="소셜로그인&lt;div&gt;일반 회원가입&lt;/div&gt;" style="rounded=0;whiteSpace=wrap;html=1;align=left;" parent="1" vertex="1">
          <mxGeometry x="403" y="10" width="120" height="40" as="geometry" />
        </mxCell>
        <mxCell id="NeVZHB2cAkmc2NvBBLA5-10" style="edgeStyle=orthogonalEdgeStyle;rounded=0;orthogonalLoop=1;jettySize=auto;html=1;entryX=0;entryY=0.5;entryDx=0;entryDy=0;" edge="1" parent="1" source="ANXaPgxON0iwH09Vxr6g-76" target="ANXaPgxON0iwH09Vxr6g-50">
          <mxGeometry relative="1" as="geometry" />
        </mxCell>
        <mxCell id="ANXaPgxON0iwH09Vxr6g-76" value="개설&lt;div&gt;수정&lt;/div&gt;&lt;div&gt;신청&lt;/div&gt;&lt;div&gt;승인/거절&lt;/div&gt;" style="rounded=0;whiteSpace=wrap;html=1;align=left;" parent="1" vertex="1">
          <mxGeometry x="434.5" y="425" width="57" height="70" as="geometry" />
        </mxCell>
        <mxCell id="ANXaPgxON0iwH09Vxr6g-82" value="" style="endArrow=none;dashed=1;html=1;rounded=0;" parent="1" edge="1">
          <mxGeometry width="50" height="50" relative="1" as="geometry">
            <mxPoint x="30" y="600" as="sourcePoint" />
            <mxPoint x="790" y="600" as="targetPoint" />
          </mxGeometry>
        </mxCell>
        <mxCell id="ANXaPgxON0iwH09Vxr6g-84" value="&lt;span style=&quot;background-color: initial;&quot;&gt;chat service&lt;/span&gt;" style="rounded=1;whiteSpace=wrap;html=1;" parent="1" vertex="1">
          <mxGeometry x="615" y="1030" width="120" height="40" as="geometry" />
        </mxCell>
        <mxCell id="ANXaPgxON0iwH09Vxr6g-85" value="member service" style="rounded=1;whiteSpace=wrap;html=1;" parent="1" vertex="1">
          <mxGeometry x="615" y="740" width="120" height="40" as="geometry" />
        </mxCell>
        <mxCell id="ANXaPgxON0iwH09Vxr6g-86" value="subscription service" style="rounded=1;whiteSpace=wrap;html=1;" parent="1" vertex="1">
          <mxGeometry x="615" y="968.75" width="120" height="40" as="geometry" />
        </mxCell>
        <mxCell id="ANXaPgxON0iwH09Vxr6g-87" value="payment&amp;nbsp;&lt;span style=&quot;background-color: initial;&quot;&gt;service&lt;/span&gt;" style="rounded=1;whiteSpace=wrap;html=1;" parent="1" vertex="1">
          <mxGeometry x="615" y="855" width="120" height="40" as="geometry" />
        </mxCell>
        <mxCell id="ANXaPgxON0iwH09Vxr6g-88" value="&lt;span style=&quot;background-color: initial;&quot;&gt;like service&lt;/span&gt;" style="rounded=1;whiteSpace=wrap;html=1;" parent="1" vertex="1">
          <mxGeometry x="615" y="797.5" width="120" height="40" as="geometry" />
        </mxCell>
        <mxCell id="ANXaPgxON0iwH09Vxr6g-89" value="&lt;span style=&quot;background-color: initial;&quot;&gt;gathering service&lt;/span&gt;" style="rounded=1;whiteSpace=wrap;html=1;" parent="1" vertex="1">
          <mxGeometry x="615" y="683.75" width="120" height="40" as="geometry" />
        </mxCell>
        <mxCell id="ANXaPgxON0iwH09Vxr6g-139" style="edgeStyle=orthogonalEdgeStyle;rounded=0;orthogonalLoop=1;jettySize=auto;html=1;entryX=0;entryY=0.5;entryDx=0;entryDy=0;" parent="1" source="ANXaPgxON0iwH09Vxr6g-92" target="NeVZHB2cAkmc2NvBBLA5-1" edge="1">
          <mxGeometry relative="1" as="geometry">
            <mxPoint x="140.00001902497934" y="674.4827586206898" as="targetPoint" />
          </mxGeometry>
        </mxCell>
        <mxCell id="ANXaPgxON0iwH09Vxr6g-92" value="비회원" style="shape=umlActor;verticalLabelPosition=bottom;verticalAlign=top;html=1;outlineConnect=0;" parent="1" vertex="1">
          <mxGeometry x="34" y="644.75" width="30" height="60" as="geometry" />
        </mxCell>
        <mxCell id="ANXaPgxON0iwH09Vxr6g-93" value="회&lt;span style=&quot;background-color: initial;&quot;&gt;원&lt;/span&gt;" style="shape=umlActor;verticalLabelPosition=bottom;verticalAlign=top;html=1;outlineConnect=0;" parent="1" vertex="1">
          <mxGeometry x="30" y="825" width="30" height="60" as="geometry" />
        </mxCell>
        <mxCell id="ANXaPgxON0iwH09Vxr6g-101" style="edgeStyle=orthogonalEdgeStyle;rounded=0;orthogonalLoop=1;jettySize=auto;html=1;entryX=0;entryY=0.5;entryDx=0;entryDy=0;exitX=1;exitY=0.5;exitDx=0;exitDy=0;" parent="1" source="ANXaPgxON0iwH09Vxr6g-126" target="ANXaPgxON0iwH09Vxr6g-85" edge="1">
          <mxGeometry relative="1" as="geometry">
            <mxPoint x="320" y="733.7241379310344" as="sourcePoint" />
          </mxGeometry>
        </mxCell>
        <mxCell id="ANXaPgxON0iwH09Vxr6g-105" style="edgeStyle=orthogonalEdgeStyle;rounded=0;orthogonalLoop=1;jettySize=auto;html=1;exitX=1;exitY=0.5;exitDx=0;exitDy=0;entryX=0;entryY=0.5;entryDx=0;entryDy=0;" parent="1" source="ANXaPgxON0iwH09Vxr6g-122" target="ANXaPgxON0iwH09Vxr6g-87" edge="1">
          <mxGeometry relative="1" as="geometry">
            <mxPoint x="320" y="861.25" as="sourcePoint" />
          </mxGeometry>
        </mxCell>
        <mxCell id="ANXaPgxON0iwH09Vxr6g-107" style="edgeStyle=orthogonalEdgeStyle;rounded=0;orthogonalLoop=1;jettySize=auto;html=1;entryX=0;entryY=0.5;entryDx=0;entryDy=0;exitX=1;exitY=0.5;exitDx=0;exitDy=0;" parent="1" source="ANXaPgxON0iwH09Vxr6g-123" target="ANXaPgxON0iwH09Vxr6g-46" edge="1">
          <mxGeometry relative="1" as="geometry">
            <mxPoint x="320" y="931.2413793103447" as="sourcePoint" />
          </mxGeometry>
        </mxCell>
        <mxCell id="ANXaPgxON0iwH09Vxr6g-109" style="edgeStyle=orthogonalEdgeStyle;rounded=0;orthogonalLoop=1;jettySize=auto;html=1;entryX=0;entryY=0.5;entryDx=0;entryDy=0;exitX=1;exitY=0.5;exitDx=0;exitDy=0;" parent="1" source="ANXaPgxON0iwH09Vxr6g-121" target="ANXaPgxON0iwH09Vxr6g-86" edge="1">
          <mxGeometry relative="1" as="geometry">
            <mxPoint x="320" y="1002.4827586206898" as="sourcePoint" />
          </mxGeometry>
        </mxCell>
        <mxCell id="ANXaPgxON0iwH09Vxr6g-134" style="edgeStyle=orthogonalEdgeStyle;rounded=0;orthogonalLoop=1;jettySize=auto;html=1;entryX=0;entryY=0.5;entryDx=0;entryDy=0;" parent="1" source="ANXaPgxON0iwH09Vxr6g-112" target="ANXaPgxON0iwH09Vxr6g-84" edge="1">
          <mxGeometry relative="1" as="geometry">
            <Array as="points">
              <mxPoint x="530" y="1090" />
              <mxPoint x="530" y="1050" />
            </Array>
          </mxGeometry>
        </mxCell>
        <mxCell id="ANXaPgxON0iwH09Vxr6g-112" value="참여중인 채팅 리스트" style="rounded=0;whiteSpace=wrap;html=1;align=left;" parent="1" vertex="1">
          <mxGeometry x="310" y="1078.75" width="130" height="22.5" as="geometry" />
        </mxCell>
        <mxCell id="ANXaPgxON0iwH09Vxr6g-133" style="edgeStyle=orthogonalEdgeStyle;rounded=0;orthogonalLoop=1;jettySize=auto;html=1;entryX=0;entryY=0.5;entryDx=0;entryDy=0;" parent="1" source="ANXaPgxON0iwH09Vxr6g-120" target="ANXaPgxON0iwH09Vxr6g-84" edge="1">
          <mxGeometry relative="1" as="geometry">
            <Array as="points">
              <mxPoint x="530" y="1035" />
              <mxPoint x="530" y="1050" />
            </Array>
          </mxGeometry>
        </mxCell>
        <mxCell id="ANXaPgxON0iwH09Vxr6g-120" value="채팅 기록" style="rounded=0;whiteSpace=wrap;html=1;align=left;" parent="1" vertex="1">
          <mxGeometry x="310" y="1023.75" width="60" height="22.5" as="geometry" />
        </mxCell>
        <mxCell id="ANXaPgxON0iwH09Vxr6g-121" value="구독 리스트" style="rounded=0;whiteSpace=wrap;html=1;align=left;" parent="1" vertex="1">
          <mxGeometry x="310" y="977.5" width="80" height="22.5" as="geometry" />
        </mxCell>
        <mxCell id="ANXaPgxON0iwH09Vxr6g-122" value="결제 히스토리" style="rounded=0;whiteSpace=wrap;html=1;align=left;" parent="1" vertex="1">
          <mxGeometry x="310" y="863.5" width="80" height="22.5" as="geometry" />
        </mxCell>
        <mxCell id="ANXaPgxON0iwH09Vxr6g-123" value="알림 히스토리" style="rounded=0;whiteSpace=wrap;html=1;align=left;" parent="1" vertex="1">
          <mxGeometry x="310" y="920" width="80" height="22.5" as="geometry" />
        </mxCell>
        <mxCell id="ANXaPgxON0iwH09Vxr6g-152" style="edgeStyle=orthogonalEdgeStyle;rounded=0;orthogonalLoop=1;jettySize=auto;html=1;entryX=0;entryY=0.5;entryDx=0;entryDy=0;" parent="1" source="ANXaPgxON0iwH09Vxr6g-124" target="ANXaPgxON0iwH09Vxr6g-88" edge="1">
          <mxGeometry relative="1" as="geometry" />
        </mxCell>
        <mxCell id="ANXaPgxON0iwH09Vxr6g-124" value="좋아요 히스토리" style="rounded=0;whiteSpace=wrap;html=1;align=left;" parent="1" vertex="1">
          <mxGeometry x="310" y="815" width="100" height="22.5" as="geometry" />
        </mxCell>
        <mxCell id="ANXaPgxON0iwH09Vxr6g-131" style="edgeStyle=orthogonalEdgeStyle;rounded=0;orthogonalLoop=1;jettySize=auto;html=1;entryX=0;entryY=0.5;entryDx=0;entryDy=0;" parent="1" source="ANXaPgxON0iwH09Vxr6g-125" target="ANXaPgxON0iwH09Vxr6g-89" edge="1">
          <mxGeometry relative="1" as="geometry" />
        </mxCell>
        <mxCell id="ANXaPgxON0iwH09Vxr6g-125" value="참여중인 모임 및 이벤트 리스트" style="rounded=0;whiteSpace=wrap;html=1;align=left;" parent="1" vertex="1">
          <mxGeometry x="310" y="730" width="175" height="22.5" as="geometry" />
        </mxCell>
        <mxCell id="ANXaPgxON0iwH09Vxr6g-126" value="본인 회원 정보" style="rounded=0;whiteSpace=wrap;html=1;align=left;" parent="1" vertex="1">
          <mxGeometry x="310" y="770" width="100" height="22.5" as="geometry" />
        </mxCell>
        <mxCell id="ANXaPgxON0iwH09Vxr6g-130" style="edgeStyle=orthogonalEdgeStyle;rounded=0;orthogonalLoop=1;jettySize=auto;html=1;entryX=0;entryY=0.5;entryDx=0;entryDy=0;" parent="1" source="ANXaPgxON0iwH09Vxr6g-127" target="ANXaPgxON0iwH09Vxr6g-89" edge="1">
          <mxGeometry relative="1" as="geometry">
            <Array as="points">
              <mxPoint x="550" y="695" />
              <mxPoint x="550" y="704" />
            </Array>
          </mxGeometry>
        </mxCell>
        <mxCell id="ANXaPgxON0iwH09Vxr6g-127" value="모임 및 이벤트 정보" style="rounded=0;whiteSpace=wrap;html=1;align=left;" parent="1" vertex="1">
          <mxGeometry x="310" y="683.75" width="120" height="22.5" as="geometry" />
        </mxCell>
        <mxCell id="ANXaPgxON0iwH09Vxr6g-132" style="edgeStyle=orthogonalEdgeStyle;rounded=0;orthogonalLoop=1;jettySize=auto;html=1;entryX=0;entryY=0.5;entryDx=0;entryDy=0;exitX=1;exitY=0.5;exitDx=0;exitDy=0;" parent="1" source="ANXaPgxON0iwH09Vxr6g-128" target="ANXaPgxON0iwH09Vxr6g-49" edge="1">
          <mxGeometry relative="1" as="geometry">
            <Array as="points">
              <mxPoint x="450" y="646" />
            </Array>
          </mxGeometry>
        </mxCell>
        <mxCell id="ANXaPgxON0iwH09Vxr6g-128" value="행사 정보" style="rounded=0;whiteSpace=wrap;html=1;align=left;" parent="1" vertex="1">
          <mxGeometry x="310" y="635" width="70" height="22.5" as="geometry" />
        </mxCell>
        <mxCell id="ANXaPgxON0iwH09Vxr6g-142" style="edgeStyle=orthogonalEdgeStyle;rounded=0;orthogonalLoop=1;jettySize=auto;html=1;entryX=0;entryY=0.5;entryDx=0;entryDy=0;exitX=1;exitY=0.5;exitDx=0;exitDy=0;" parent="1" source="NeVZHB2cAkmc2NvBBLA5-1" target="ANXaPgxON0iwH09Vxr6g-127" edge="1">
          <mxGeometry relative="1" as="geometry">
            <mxPoint x="179.99998097502066" y="674.4827586206898" as="sourcePoint" />
          </mxGeometry>
        </mxCell>
        <mxCell id="ANXaPgxON0iwH09Vxr6g-143" style="edgeStyle=orthogonalEdgeStyle;rounded=0;orthogonalLoop=1;jettySize=auto;html=1;entryX=0;entryY=0.5;entryDx=0;entryDy=0;exitX=1;exitY=0.5;exitDx=0;exitDy=0;" parent="1" source="NeVZHB2cAkmc2NvBBLA5-1" target="ANXaPgxON0iwH09Vxr6g-128" edge="1">
          <mxGeometry relative="1" as="geometry">
            <mxPoint x="179.99998097502066" y="674.4827586206898" as="sourcePoint" />
          </mxGeometry>
        </mxCell>
        <mxCell id="ANXaPgxON0iwH09Vxr6g-144" style="edgeStyle=orthogonalEdgeStyle;rounded=0;orthogonalLoop=1;jettySize=auto;html=1;entryX=0;entryY=0.5;entryDx=0;entryDy=0;" parent="1" source="ANXaPgxON0iwH09Vxr6g-140" target="ANXaPgxON0iwH09Vxr6g-125" edge="1">
          <mxGeometry relative="1" as="geometry" />
        </mxCell>
        <mxCell id="ANXaPgxON0iwH09Vxr6g-145" style="edgeStyle=orthogonalEdgeStyle;rounded=0;orthogonalLoop=1;jettySize=auto;html=1;entryX=0;entryY=0.5;entryDx=0;entryDy=0;" parent="1" source="ANXaPgxON0iwH09Vxr6g-140" target="ANXaPgxON0iwH09Vxr6g-126" edge="1">
          <mxGeometry relative="1" as="geometry" />
        </mxCell>
        <mxCell id="ANXaPgxON0iwH09Vxr6g-146" style="edgeStyle=orthogonalEdgeStyle;rounded=0;orthogonalLoop=1;jettySize=auto;html=1;entryX=0;entryY=0.5;entryDx=0;entryDy=0;" parent="1" source="ANXaPgxON0iwH09Vxr6g-140" target="ANXaPgxON0iwH09Vxr6g-124" edge="1">
          <mxGeometry relative="1" as="geometry" />
        </mxCell>
        <mxCell id="ANXaPgxON0iwH09Vxr6g-147" style="edgeStyle=orthogonalEdgeStyle;rounded=0;orthogonalLoop=1;jettySize=auto;html=1;entryX=0;entryY=0.5;entryDx=0;entryDy=0;" parent="1" source="ANXaPgxON0iwH09Vxr6g-140" target="ANXaPgxON0iwH09Vxr6g-122" edge="1">
          <mxGeometry relative="1" as="geometry" />
        </mxCell>
        <mxCell id="ANXaPgxON0iwH09Vxr6g-148" style="edgeStyle=orthogonalEdgeStyle;rounded=0;orthogonalLoop=1;jettySize=auto;html=1;entryX=0;entryY=0.5;entryDx=0;entryDy=0;" parent="1" source="ANXaPgxON0iwH09Vxr6g-140" target="ANXaPgxON0iwH09Vxr6g-123" edge="1">
          <mxGeometry relative="1" as="geometry" />
        </mxCell>
        <mxCell id="ANXaPgxON0iwH09Vxr6g-149" style="edgeStyle=orthogonalEdgeStyle;rounded=0;orthogonalLoop=1;jettySize=auto;html=1;entryX=0;entryY=0.5;entryDx=0;entryDy=0;" parent="1" source="ANXaPgxON0iwH09Vxr6g-140" target="ANXaPgxON0iwH09Vxr6g-121" edge="1">
          <mxGeometry relative="1" as="geometry" />
        </mxCell>
        <mxCell id="ANXaPgxON0iwH09Vxr6g-150" style="edgeStyle=orthogonalEdgeStyle;rounded=0;orthogonalLoop=1;jettySize=auto;html=1;entryX=0;entryY=0.5;entryDx=0;entryDy=0;" parent="1" source="ANXaPgxON0iwH09Vxr6g-140" target="ANXaPgxON0iwH09Vxr6g-120" edge="1">
          <mxGeometry relative="1" as="geometry" />
        </mxCell>
        <mxCell id="ANXaPgxON0iwH09Vxr6g-151" style="edgeStyle=orthogonalEdgeStyle;rounded=0;orthogonalLoop=1;jettySize=auto;html=1;entryX=0;entryY=0.5;entryDx=0;entryDy=0;" parent="1" source="ANXaPgxON0iwH09Vxr6g-140" target="ANXaPgxON0iwH09Vxr6g-112" edge="1">
          <mxGeometry relative="1" as="geometry" />
        </mxCell>
        <mxCell id="ANXaPgxON0iwH09Vxr6g-140" value="조회" style="ellipse;whiteSpace=wrap;html=1;" parent="1" vertex="1">
          <mxGeometry x="132" y="841" width="48" height="29.5" as="geometry" />
        </mxCell>
        <mxCell id="ANXaPgxON0iwH09Vxr6g-141" style="edgeStyle=orthogonalEdgeStyle;rounded=0;orthogonalLoop=1;jettySize=auto;html=1;entryX=-0.13;entryY=0.458;entryDx=0;entryDy=0;entryPerimeter=0;" parent="1" source="ANXaPgxON0iwH09Vxr6g-93" target="ANXaPgxON0iwH09Vxr6g-140" edge="1">
          <mxGeometry relative="1" as="geometry" />
        </mxCell>
        <mxCell id="NeVZHB2cAkmc2NvBBLA5-1" value="조회" style="ellipse;whiteSpace=wrap;html=1;" vertex="1" parent="1">
          <mxGeometry x="132" y="660" width="48" height="29.5" as="geometry" />
        </mxCell>
      </root>
    </mxGraphModel>
  </diagram>
</mxfile>
